Coordinates
version=1
nRows=16
nColumns=40
inDegrees=yes

Units are S.I. units (second, meters, Newtons, ...)
Angles are in degrees.

endheader
time	pelvis_tilt	pelvis_list	pelvis_rotation	pelvis_tx	pelvis_ty	pelvis_tz	hip_flexion_r	hip_adduction_r	hip_rotation_r	knee_angle_r	knee_angle_r_beta	ankle_angle_r	subtalar_angle_r	mtp_angle_r	hip_flexion_l	hip_adduction_l	hip_rotation_l	knee_angle_l	knee_angle_l_beta	ankle_angle_l	subtalar_angle_l	mtp_angle_l	lumbar_extension	lumbar_bending	lumbar_rotation	arm_flex_r	arm_add_r	arm_rot_r	elbow_flex_r	pro_sup_r	wrist_flex_r	wrist_dev_r	arm_flex_l	arm_add_l	arm_rot_l	elbow_flex_l	pro_sup_l	wrist_flex_l	wrist_dev_l
     37.37000000	     -2.27598529	     -4.23040766	     -3.27456603	      1.14840748	      0.92711182	      0.45700299	     18.21295511	     -0.10283396	     -9.55032251	     22.33052612	     22.33052612	      8.38052136	      0.23924117	     -1.40221856	      0.56305255	    -10.41462162	    -11.28183717	     27.12989232	     27.12989232	     16.21715637	     -9.98593071	     -5.76820580	     -9.16143599	      4.32888055	      0.83089385	     -2.99978801	    -13.71621245	     -6.03329797	     40.51900252	     45.96005395	      0.00000000	      0.00000000	      8.65223548	    -15.03208432	    -16.77010509	     71.60318940	     47.67153350	      0.00000000	      0.00000000
     37.38371429	     -2.23108057	     -4.36509980	     -2.93232481	      1.14866338	      0.92752225	      0.46103541	     17.63731540	      0.21963151	     -9.98900117	     22.20719249	     22.20719249	      8.74145215	      0.36913328	     -1.41549837	      2.07194030	    -11.21370509	    -10.19627830	     30.44025609	     30.44025609	     14.48941867	    -11.77473128	     -7.69856607	     -9.14353786	      4.38671299	      0.90960600	     -2.36816109	    -13.91986031	     -5.55596864	     42.79377878	     45.83659456	      0.00000000	      0.00000000	      8.64782098	    -14.92372001	    -16.00486930	     69.80794682	     47.59808141	      0.00000000	      0.00000000
     37.39742857	     -2.20007276	     -4.57747439	     -2.51102116	      1.14860831	      0.92779152	      0.46492414	     17.05364478	      0.61929418	    -10.50985589	     22.01008768	     22.01008768	      9.05476369	      0.45904814	     -1.47520047	      3.95039213	    -12.14884721	     -9.05976455	     34.30592078	     34.30592078	     13.20371392	    -12.94406941	     -8.23960607	     -9.15218614	      4.50526839	      0.70878028	     -1.04981324	    -13.95285132	     -5.56476911	     43.84553371	     45.80334241	      0.00000000	      0.00000000	      8.18043834	    -14.77628656	    -15.62738505	     68.82665398	     47.55341592	      0.00000000	      0.00000000
     37.41114286	     -2.21036318	     -4.68462045	     -2.03369423	      1.14820423	      0.92787956	      0.46841978	     16.60930425	      0.86616675	    -11.02630468	     21.94208091	     21.94208091	      9.40299677	      0.56213905	     -1.55678841	      6.02705584	    -12.79814033	     -7.58604430	     38.16807325	     38.16807325	     11.32959867	    -14.64481553	     -9.17962792	     -9.10673553	      4.57717452	      0.99323807	     -0.81538047	    -14.50384387	     -4.75897864	     47.39492355	     45.62390206	      0.00000000	      0.00000000	      8.71845160	    -14.61943436	    -14.25600700	     65.83362260	     47.42198857	      0.00000000	      0.00000000
     37.42485714	     -2.19842905	     -4.85881860	     -1.54034647	      1.14754181	      0.92790426	      0.47166149	     16.14182308	      1.18278878	    -11.53225599	     21.82871635	     21.82871635	      9.71528697	      0.59241698	     -1.65801767	      8.27209124	    -13.45703767	     -6.10151898	     42.22830193	     42.22830193	      9.94242585	    -15.73208367	     -8.63762169	     -9.14081829	      4.71337156	      0.78526458	      0.48592226	    -14.78617416	     -4.66085659	     49.33106944	     45.55433910	      0.00000000	      0.00000000	      8.41719639	    -14.52446865	    -13.52389538	     63.96412694	     47.34295866	      0.00000000	      0.00000000
     37.43857143	     -2.18450639	     -4.99492119	     -1.00490302	      1.14662519	      0.92787841	      0.47456876	     15.71031512	      1.43560126	    -12.04020627	     21.74287909	     21.74287909	     10.02092750	      0.58090242	     -1.78551953	     10.62753107	    -13.95195538	     -4.56826255	     46.23679794	     46.23679794	      8.84777588	    -16.43478601	     -7.11114668	     -9.19098188	      4.81107802	      0.63595053	      1.71974201	    -15.17993369	     -4.36745401	     51.59673364	     45.46621567	      0.00000000	      0.00000000	      8.36854799	    -14.31037642	    -12.72329437	     61.62647051	     47.25270614	      0.00000000	      0.00000000
     37.45228571	     -2.16027053	     -5.13898565	     -0.45657484	      1.14554534	      0.92787460	      0.47711869	     15.24801431	      1.69013576	    -12.54988019	     21.58855984	     21.58855984	     10.28655420	      0.58601402	     -1.93800760	     13.04292477	    -14.30411654	     -3.00198538	     50.12121307	     50.12121307	      8.51776870	    -16.60771214	     -3.74513741	     -9.26224525	      4.96393399	      0.98268679	      2.55991705	    -15.95677562	     -3.84093445	     54.37902373	     45.35293512	      0.00000000	      0.00000000	      8.76508745	    -13.85146210	    -11.62115154	     58.70298084	     47.13607791	      0.00000000	      0.00000000
     37.46600000	     -2.13993688	     -5.23372312	      0.09055460	      1.14425560	      0.92789145	      0.47935945	     14.80853108	      1.88928235	    -12.99897990	     21.41905915	     21.41905915	     10.53360283	      0.53663535	     -2.09553500	     15.40814120	    -14.48802372	     -1.54793039	     53.57633223	     53.57633223	      8.25360863	    -16.71115967	     -0.44487473	     -9.33476972	      5.06484172	      1.18583215	      3.76058885	    -16.59623285	     -3.67303122	     56.71902435	     45.27911004	      0.00000000	      0.00000000	      8.88934807	    -13.39887147	    -10.65767006	     56.11760530	     47.03246152	      0.00000000	      0.00000000
     37.47971429	     -2.11804506	     -5.38948170	      0.64016319	      1.14289806	      0.92792381	      0.48142424	     14.36253544	      2.16177196	    -13.41750564	     21.21604194	     21.21604194	     10.80382249	      0.44714221	     -2.15776304	     17.60561613	    -14.72988953	     -0.33815340	     56.33538672	     56.33538672	      7.21533805	    -17.06156423	      0.22795575	     -9.43996797	      5.19236454	      1.03734159	      5.59566044	    -16.90681168	     -3.85403967	     57.97227672	     45.25384438	      0.00000000	      0.00000000	      8.19641466	    -12.99607649	    -10.28922473	     54.88132070	     46.98095347	      0.00000000	      0.00000000
     37.49342857	     -2.00256730	     -5.39361631	      1.12755887	      1.14141051	      0.92824544	      0.48321375	     13.84000834	      2.27270387	    -13.74464744	     21.03608996	     21.03608996	     11.02712350	      0.33031467	     -2.20871211	     19.52292422	    -14.74967992	      0.59873813	     58.47894781	     58.47894781	      6.45285735	    -17.35771475	      0.96136208	     -9.67741529	      5.19124698	      1.06550347	      7.63870706	    -17.37550480	     -3.97022873	     59.27172229	     45.22500037	      0.00000000	      0.00000000	      7.64003106	    -12.45406291	     -9.93591587	     53.60365844	     46.93056995	      0.00000000	      0.00000000
     37.50714286	     -2.03205778	     -5.29393359	      1.64138865	      1.13975207	      0.92853699	      0.48464725	     13.43027063	      2.26194961	    -14.05972309	     20.74370599	     20.74370599	     11.12682248	      0.20736448	     -2.60683008	     21.68094413	    -14.47539093	      1.55599390	     60.42880629	     60.42880629	      7.71509573	    -17.02144345	      6.29250426	     -9.68054344	      5.15162132	      1.46972923	      8.59178649	    -18.55565742	     -2.72670238	     62.57254767	     45.08509576	      0.00000000	      0.00000000	      8.59754583	    -11.75483176	     -9.11740751	     48.20456478	     46.80752394	      0.00000000	      0.00000000
     37.52085714	     -2.01154449	     -5.23053767	      2.12348976	      1.13810313	      0.92899836	      0.48604829	     12.92638221	      2.32753020	    -14.30876532	     20.36628525	     20.36628525	     11.27176614	      0.06177762	     -2.63804337	     23.43520516	    -14.36600772	      2.09564507	     61.33432801	     61.33432801	      7.47378079	    -17.23320217	      6.85756792	     -9.81299968	      5.07444604	      1.28407573	     10.67167600	    -18.73923015	     -3.09091618	     64.14117488	     45.06064652	      0.00000000	      0.00000000	      7.71929546	    -11.37058097	     -8.79264459	     46.78439672	     46.75268690	      0.00000000	      0.00000000
     37.53457143	     -1.99584523	     -5.12542441	      2.57732999	      1.13637794	      0.92956742	      0.48726217	     12.39648442	      2.35199437	    -14.51946223	     19.91827705	     19.91827705	     11.36778068	     -0.07391913	     -2.76495017	     25.04713549	    -14.19108364	      2.44137978	     61.62314877	     61.62314877	      7.56272560	    -17.42252282	      7.70123587	     -9.96301907	      4.99645407	      1.27608259	     12.61634067	    -19.11762499	     -3.09095898	     65.95469455	     45.01696934	      0.00000000	      0.00000000	      7.15869403	    -10.89700916	     -8.47195440	     44.54677386	     46.69437614	      0.00000000	      0.00000000
     37.54828571	     -2.01877333	     -5.04170922	      3.04370160	      1.13460903	      0.93018361	      0.48835342	     11.85940887	      2.41033741	    -14.75543469	     19.36445620	     19.36445620	     11.40868463	     -0.18416320	     -2.81648152	     26.52993867	    -14.01837500	      2.66235033	     61.22610484	     61.22610484	      7.69034765	    -17.65022159	      8.20869465	    -10.05272794	      4.91280299	      1.26850043	     14.60251624	    -19.45600763	     -3.16322505	     67.60776385	     44.97916511	      0.00000000	      0.00000000	      6.42067248	    -10.39579048	     -8.22722786	     42.70215996	     46.64530837	      0.00000000	      0.00000000
     37.56200000	     -2.04205702	     -4.89557726	      3.45251965	      1.13283654	      0.93086065	      0.48929409	     11.29748052	      2.41083651	    -14.92818536	     18.76685044	     18.76685044	     11.41287378	     -0.28969246	     -2.95235506	     27.78415652	    -13.80659652	      2.61138869	     60.16921600	     60.16921600	      7.99683140	    -17.86027309	      8.72247713	    -10.16573069	      4.79491049	      1.35168837	     16.54368578	    -19.84461988	     -3.12253021	     69.43640989	     44.93343157	      0.00000000	      0.00000000	      5.79223957	     -9.91665780	     -8.02785047	     40.52536657	     46.59985855	      0.00000000	      0.00000000
     37.57571429	     -2.20978447	     -4.75135767	      3.80697517	      1.13093294	      0.93128849	      0.49016884	     11.03480647	      2.35999986	    -15.08813242	     18.43501264	     18.43501264	     11.48699522	     -0.38256301	     -2.94793063	     28.98656696	    -13.62829089	      2.34504728	     58.48105613	     58.48105613	      8.31359631	    -17.92896565	      8.88141811	    -10.10818319	      4.59533485	      1.87599519	     18.35346556	    -20.53494898	     -3.44497771	     70.26844875	     44.92679966	      0.00000000	      0.00000000	      4.88616344	     -9.29301488	     -7.89622834	     39.86246159	     46.56912045	      0.00000000	      0.00000000
